# xmcd
#
# Track frame offsets:
#	150
#	11893
#	27793
#	41949
#	57427
#	78140
#	91192
#	101710
#	114430
#	128957
#	142662
#	160913
#	181496
#	193152
#
# Disc length: 2792 seconds
#
# Revision: 0
# Processed by: cddbd v1.4PL0 Copyright (c) Steve Scherf et al.
# Submitted via: dBpowerAMP V4.0
#
DISCID=b70ae60e
DTITLE=Breno Reis e Marco Viola - Do jeito que o povo gosta
DYEAR=2003
DGENRE=Moda de Viola
TTITLE0=Do jeito que o povo gosta
TTITLE1=Pois e
TTITLE2=Meus inimigos tambem sao filhos de deus
TTITLE3=A fia do delegado
TTITLE4=E saudade de voce
TTITLE5=Bao de bico
TTITLE6=Eu gosto e to rindo a toa
TTITLE7=Paraguaia linda
TTITLE8=Pra nao morrer apaixonado
TTITLE9=A nivel nacional
TTITLE10=Sempre foi assim
TTITLE11=Nois e jeca mais nois e joia
TTITLE12=Pagode
TTITLE13=Dom brasileiro
EXTD=
EXTT0=
EXTT1=
EXTT2=
EXTT3=
EXTT4=
EXTT5=
EXTT6=
EXTT7=
EXTT8=
EXTT9=
EXTT10=
EXTT11=
EXTT12=
EXTT13=
PLAYORDER=
